<mxfile host="app.diagrams.net" modified="2023-10-22T15:28:28.422Z" agent="Mozilla/5.0 (Macintosh; Intel Mac OS X 10_15_7) AppleWebKit/537.36 (KHTML, like Gecko) Chrome/113.0.0.0 Safari/537.36" version="21.7.4" etag="BUFeU-JT0FECTx6Lqn6j" type="github">
  <diagram name="Page-1" id="zNIOq2I2peN-yNa7zV87">
    <mxGraphModel>
      <root>
        <mxCell id="0" />
        <mxCell id="1" parent="0" />
      </root>
    </mxGraphModel>
  </diagram>
</mxfile>
